<svg width="1037" height="833" viewBox="0 0 1037 833" fill="none" xmlns="http://www.w3.org/2000/svg">
<path d="M59.12 510.28C59.12 512.69 58.28 514.73 56.59 516.42C54.9 518.11 52.86 518.95 50.45 518.95H35.52C33.11 518.95 31.07 518.11 29.38 516.42C27.69 514.73 26.85 512.69 26.85 510.28V375.68L0.119999 186.91C-0.200001 185.47 0.120006 184.26 1.08001 183.3C2.04001 182.34 3.33 181.86 4.93 181.86H18.41C23.06 181.86 26.48 183.18 28.64 185.83C30.81 188.48 32.05 191.89 32.37 196.06L42.96 315.01L53.8 196.06C54.12 191.89 55.36 188.48 57.53 185.83C59.7 183.18 63.11 181.86 67.76 181.86H81.24C82.84 181.86 84.13 182.34 85.09 183.3C86.05 184.26 86.37 185.47 86.05 186.91L59.08 375.68V510.28H59.12Z" fill="black"/>
<path d="M190.59 219.42C190.59 206.58 194.64 196.47 202.75 189.08C210.85 181.7 222.21 178 236.82 178C243.72 178 250.02 178.96 255.72 180.89C261.42 182.82 266.31 185.59 270.41 189.2C274.5 192.81 277.63 197.15 279.8 202.2C281.97 207.25 283.05 213 283.05 219.42V481.39C283.05 494.23 278.99 504.35 270.89 511.73C262.78 519.11 251.42 522.81 236.82 522.81C229.75 522.81 223.42 521.85 217.8 519.92C212.18 517.99 207.33 515.22 203.23 511.61C199.14 508 196.01 503.66 193.84 498.61C191.67 493.55 190.59 487.82 190.59 481.39V219.42ZM250.79 219.42C250.79 215.09 249.66 211.59 247.42 208.95C245.17 206.3 241.64 204.98 236.83 204.98C232.17 204.98 228.68 206.3 226.36 208.95C224.03 211.6 222.87 215.09 222.87 219.42V481.39C222.87 485.72 223.99 489.22 226.24 491.86C228.49 494.51 232.02 495.83 236.83 495.83C241.48 495.83 244.98 494.51 247.3 491.86C249.62 489.21 250.79 485.72 250.79 481.39V219.42Z" fill="black"/>
<path d="M403.44 219.42C403.44 206.58 407.49 196.47 415.6 189.08C423.7 181.7 435.06 178 449.67 178C456.57 178 462.87 178.96 468.57 180.89C474.27 182.82 479.16 185.59 483.26 189.2C487.35 192.81 490.48 197.15 492.65 202.2C494.82 207.25 495.9 213 495.9 219.42V481.39C495.9 494.23 491.84 504.35 483.74 511.73C475.63 519.11 464.27 522.81 449.67 522.81C442.6 522.81 436.27 521.85 430.65 519.92C425.03 517.99 420.18 515.22 416.08 511.61C411.99 508 408.86 503.66 406.69 498.61C404.52 493.55 403.44 487.82 403.44 481.39V219.42ZM463.63 219.42C463.63 215.09 462.5 211.59 460.26 208.95C458.01 206.3 454.48 204.98 449.67 204.98C445.01 204.98 441.52 206.3 439.2 208.95C436.87 211.6 435.71 215.09 435.71 219.42V481.39C435.71 485.72 436.83 489.22 439.08 491.86C441.33 494.51 444.86 495.83 449.67 495.83C454.32 495.83 457.82 494.51 460.14 491.86C462.46 489.21 463.63 485.72 463.63 481.39V219.42Z" fill="black"/>
<path d="M670.22 181.85C676.16 181.85 680.13 183.02 682.14 185.34C684.14 187.67 684.91 190.68 684.43 194.37L645.18 491.98H675.76C679.45 491.98 682.42 493.27 684.67 495.83C686.92 498.4 688.04 501.77 688.04 505.94V514.13C688.04 515.74 687.56 516.94 686.6 517.74C685.64 518.55 684.43 518.94 682.99 518.94H616.29C614.68 518.94 613.44 518.46 612.56 517.5C611.68 516.54 611.31 515.33 611.48 513.89L649.52 208.82H626.64C622.95 208.82 619.98 207.54 617.73 204.97C615.48 202.4 614.36 199.03 614.36 194.86V186.67C614.36 185.07 614.84 183.82 615.8 182.94C616.76 182.06 617.97 181.7 619.41 181.86H670.22V181.85Z" fill="black"/>
<path d="M809.38 194.13C809.38 190.44 810.66 187.47 813.23 185.22C815.8 182.97 819.17 181.85 823.34 181.85H836.82C838.42 181.85 839.63 182.33 840.43 183.29C841.23 184.25 841.63 185.46 841.63 186.9V510.27C841.63 512.68 840.79 514.72 839.1 516.41C837.41 518.1 835.37 518.94 832.96 518.94H818.03C815.62 518.94 813.58 518.1 811.89 516.41C810.2 514.72 809.36 512.68 809.36 510.27V194.13H809.38Z" fill="black"/>
<path d="M1031.14 181.85C1032.59 181.85 1033.79 182.25 1034.75 183.05C1035.71 183.86 1036.19 185.06 1036.19 186.66V194.85C1036.19 199.03 1035.06 202.4 1032.82 204.96C1030.57 207.53 1027.6 208.81 1023.91 208.81H994.29V338.59H1026.31C1027.75 338.59 1028.96 338.99 1029.92 339.79C1030.88 340.6 1031.37 341.8 1031.37 343.4V351.59C1031.37 355.77 1030.24 359.14 1028 361.7C1025.75 364.27 1022.78 365.55 1019.09 365.55H994.29V491.96H1023.91C1027.6 491.96 1030.57 493.25 1032.82 495.81C1035.07 498.38 1036.19 501.75 1036.19 505.92V514.11C1036.19 515.72 1035.71 516.92 1034.75 517.72C1033.79 518.53 1032.58 518.92 1031.14 518.92H966.85C965.24 518.92 964.04 518.44 963.24 517.48C962.44 516.52 962.04 515.31 962.04 513.87V186.91C962.04 185.47 962.44 184.26 963.24 183.3C964.04 182.34 965.24 181.86 966.85 181.86H1031.14V181.85Z" fill="black"/>
<path opacity="0.06" d="M850.718 753.424C850.918 752.294 847.618 747.784 845.848 746.724C844.048 745.594 843.368 744.914 842.718 744.914C842.058 744.914 840.858 745.324 840.858 745.324L839.778 746.734C839.778 746.734 839.118 749.204 837.588 748.994C836.048 748.754 834.878 748.084 834.228 748.274C833.568 748.504 834.878 747.634 833.568 748.504C832.198 749.384 833.338 748.084 832.198 749.384C831.088 750.734 831.088 752.554 829.748 752.084C828.378 751.624 827.488 751.424 826.678 751.424C825.798 751.424 824.418 751.624 824.418 751.624L823.048 752.314C823.048 752.314 821.248 751.624 819.878 751.824C818.608 752.084 815.888 754.764 815.888 754.764C815.888 754.764 812.788 753.014 811.668 754.764C810.558 756.524 807.878 758.084 805.588 757.634C803.368 757.214 796.638 754.514 793.798 752.554C790.858 750.514 787.748 748.754 785.958 748.274C784.168 747.794 784.648 744.714 783.248 745.124C781.948 745.614 781.948 747.394 780.828 747.394C779.708 747.394 778.118 746.974 778.118 746.974C778.118 746.974 779.948 743.854 778.118 743.134C776.388 742.514 774.098 742.514 773.708 743.134C773.248 743.854 773.248 743.854 773.248 743.854C773.248 743.854 771.028 743.594 771.488 741.544C771.878 739.574 772.758 739.094 773.448 738.944C774.098 738.684 777.238 735.314 776.158 734.684C775.018 734.014 771.748 736.414 771.358 736.414C771.028 736.414 770.148 738.224 769.888 739.794C769.658 741.294 770.508 742.904 769.888 744.234C769.198 745.604 769.828 749.194 769.828 749.194C769.828 749.194 768.548 749.834 768.098 751.414C767.608 753.004 766.988 754.504 768.098 756.084C769.208 757.624 770.388 763.434 770.518 765.464C770.808 767.484 772.578 772.634 773.718 774.404C774.798 776.204 780.418 782.454 780.418 784.254C780.418 786.004 781.068 786.904 780.418 788.714C779.728 790.494 782.148 800.054 783.258 804.084C784.398 808.164 785.968 809.494 787.928 812.334C789.988 815.294 794.008 819.724 794.888 821.534C795.768 823.264 796.908 823.544 796.908 823.544C796.908 823.544 798.048 825.574 798.048 826.894C798.048 828.214 798.248 831.384 799.808 830.444C801.408 829.574 804.058 828.024 806.968 829.104C809.838 830.264 811.448 830.064 812.298 830.604C813.278 831.174 818.798 833.384 819.028 831.864C819.258 830.264 820.368 827.784 821.018 827.554C821.708 827.364 822.098 825.824 823.048 826.904C823.928 828.034 826.178 828.034 826.178 828.034L828.138 827.794C828.138 827.794 829.318 824.884 829.318 824.004C829.318 823.124 829.318 821.084 829.318 821.084C829.318 821.084 831.078 820.184 830.428 818.884C829.738 817.524 830.558 815.074 830.558 815.074C830.558 815.074 833.108 812.364 832.418 811.494C831.768 810.614 832.578 809.274 832.578 809.274C832.578 809.274 833.758 808.194 833.988 808.814C834.218 809.514 833.988 811.264 833.988 811.264L834.088 813.524C834.088 813.524 833.758 814.194 834.088 815.074C834.448 815.984 836.048 818.214 836.048 818.214C836.048 818.214 836.208 819.124 837.388 819.124C838.468 819.124 840.038 819.124 840.038 819.124L842.058 820.184C842.058 820.184 844.248 819.744 843.568 817.524C842.948 815.324 842.518 813.964 842.518 813.964C842.518 813.964 841.608 812.624 842.188 811.974C842.938 811.274 842.938 811.274 842.938 811.274C842.938 811.274 843.358 809.284 842.708 808.624C842.048 807.934 843.558 808.624 842.048 807.934C840.478 807.264 839.338 806.584 840.248 805.914C841.098 805.244 843.678 805.034 843.678 805.034L846.258 802.564C846.258 802.564 848.288 800.374 846.258 800.084C844.238 799.874 844.238 799.874 844.238 799.874L842.508 801.934C842.508 801.934 840.488 800.764 842.048 799.244C843.558 797.694 843.358 793.004 843.358 793.004L844.048 788.754C844.048 788.754 846.958 785.384 847.148 786.284C847.308 787.234 847.148 788.974 847.148 788.974C847.148 788.974 848.058 793.614 849.858 793.224C851.628 792.744 849.208 791.004 849.858 790.054C850.478 789.154 849.668 787.834 849.408 783.534C849.208 779.144 851.168 773.554 850.488 771.744C849.868 769.994 849.408 768.874 849.408 767.934C849.408 767.064 851.208 765.284 850.648 764.584C850.028 763.964 850.708 760.554 850.708 760.554C850.708 760.554 849.208 759.294 849.208 757.954C849.208 756.544 849.408 755.254 849.408 755.254C849.408 755.254 850.558 754.494 850.718 753.424Z" fill="black"/>
<path opacity="0.06" d="M962.887 400.805C963.637 396.305 964.677 392.404 964.677 392.404C964.677 392.404 965.428 389.525 963.248 390.055C961.058 390.595 959.688 391.814 958.948 391.814C958.298 391.814 956.277 390.024 956.277 390.024L955.397 387.884C955.397 387.884 955.208 367.364 954.848 364.854C954.458 362.364 953.968 362.885 954.458 361.125C955.008 359.315 956.838 354.444 956.838 354.444C956.838 354.444 954.458 353.534 954.458 351.444C954.458 349.294 954.848 343.215 956.998 339.615C959.148 336.045 961.658 331.594 961.068 330.354C960.618 329.064 958.787 327.865 958.787 327.865C958.787 327.865 958.788 326.034 958.948 325.354C959.138 324.624 959.857 323.154 959.137 323.154C958.387 323.154 956.627 322.094 956.267 323.154C955.907 324.264 955.587 324.964 955.387 325.844C955.197 326.754 957.478 329.064 957.478 329.064C957.478 329.064 958.027 332.834 955.688 333.764C953.408 334.654 953.017 334.965 953.017 335.865C953.017 336.745 953.407 339.254 953.407 339.254C953.407 339.254 952.368 340.864 951.838 340.694C951.288 340.544 951.508 340.354 951.118 339.254C950.758 338.194 950.917 337.675 950.397 337.495C949.847 337.295 946.978 337.815 946.098 336.745C945.188 335.705 942.318 334.084 942.318 330.714C942.318 327.294 940.657 324.264 938.017 323.544C935.377 322.794 935.188 325.244 934.468 322.644C933.748 320.134 929.808 312.984 929.318 311.754C928.728 310.464 927.168 308.904 926.448 308.324C925.668 307.784 924.658 306.154 923.748 306.024C922.838 305.824 922.838 306.154 921.568 306.024C920.298 305.824 918.768 306.744 917.848 305.944C916.908 305.104 916.188 304.904 916.088 303.644C915.828 302.404 915.337 298.655 914.427 297.435C913.547 296.165 912.797 295.054 912.307 294.904C911.717 294.774 911.238 293.305 910.318 293.305C909.408 293.305 908.657 292.245 907.807 293.305C906.967 294.365 906.208 295.974 906.208 295.974L905.328 291.865C905.328 291.865 905.328 288.425 905.328 287.875C905.328 287.365 904.937 279.264 905.137 277.324C905.327 275.344 906.607 274.665 904.938 271.935C903.367 269.275 900.327 265.464 899.767 265.134C899.247 264.774 897.577 263.544 897.057 264.094C896.567 264.584 896.007 264.275 896.397 265.875C896.687 267.475 897.057 267.674 897.767 268.894C898.457 270.154 899.238 272.534 898.688 272.534C898.098 272.534 891.688 266.784 891.128 266.014C890.608 265.244 890.077 262.585 889.297 262.305C888.577 261.915 887.557 261.584 886.807 261.584C886.087 261.584 886.088 260.654 885.198 261.584C884.248 262.404 884.248 262.404 884.248 263.544C884.248 264.574 884.088 264.574 884.248 266.014C884.478 267.464 885.198 268.884 885.198 268.884C885.198 268.884 881.828 269.814 881.108 269.254C880.358 268.664 879.147 264.474 879.147 264.474C879.147 264.474 876.237 262.754 876.037 259.914C875.837 257.044 875.518 249.935 875.348 249.365C875.118 248.805 872.988 246.174 872.988 246.174C872.988 246.174 871.418 238.084 870.498 236.794C869.618 235.534 868.828 234.854 868.828 234.854C868.828 234.854 865.457 233.185 864.537 232.865C863.657 232.475 859.338 228.714 859.338 228.714C859.338 228.714 857.738 226.244 858.088 225.394C858.488 224.464 859.498 223.745 859.498 223.745C859.498 223.745 860.938 223.545 861.458 223.745C862.018 223.935 862.767 224.624 862.767 223.644C862.767 222.634 861.818 221.194 861.818 221.194L861.358 219.594C861.358 219.594 857.367 216.735 856.287 215.245C855.237 213.895 853.768 212.584 853.248 213.104C852.688 213.664 853.247 214.424 852.527 214.754C851.807 215.134 851.248 215.244 850.368 215.134C849.488 214.924 848.568 213.094 848.368 213.024C848.208 212.954 848.208 212.074 848.208 211.504C848.208 210.994 849.487 209.904 847.647 209.904C845.917 209.904 840.647 208.634 840.647 208.634C840.647 208.634 840.317 204.384 838.657 204.384C837.087 204.384 836.498 205.954 836.498 205.954C836.498 205.954 836.887 206.884 835.647 206.884C834.407 206.884 833.328 204.384 833.328 204.384C833.328 204.384 833.327 200.574 832.938 200.054C832.537 199.514 831.167 196.284 830.417 195.884C829.757 195.594 829.367 195.374 828.977 195.884C828.647 196.454 828.098 197.724 828.098 197.724C828.098 197.724 822.497 195.924 822.497 195.624C822.497 195.234 822.898 193.764 822.338 193.764C821.808 193.764 820.408 195.034 819.458 195.034C818.578 195.034 817.328 193.764 817.328 193.764V192.324C817.328 192.324 818.378 190.724 816.968 190.904C815.558 191.084 815.558 190.174 814.648 190.904C813.768 191.654 811.638 190.844 810.328 190.624C809.048 190.344 805.677 188.044 805.477 185.174C805.317 182.264 806.167 178.724 806.167 177.314C806.167 175.824 804.398 170.824 803.878 170.664C803.358 170.464 800.117 171.564 799.357 170.664C798.667 169.794 800.407 168.864 800.997 165.284C801.557 161.674 802.958 156.654 801.328 152.954C799.758 149.144 797.468 142.334 797.468 142.334L798.318 139.994C798.318 139.994 795.397 140.504 794.557 139.994C793.637 139.424 794.197 139.794 792.557 138.554C790.917 137.314 790.627 134.794 789.677 133.764C788.797 132.624 786.138 129.224 786.138 129.224L786.958 125.674C786.958 125.674 787.018 123.824 786.958 122.044H786.628H786.528C786.498 121.184 786.368 120.294 786.198 119.704C785.738 116.884 784.918 112.484 784.468 111.864C783.778 110.984 782.048 108.124 782.638 106.094C783.358 104.154 785.377 102.374 783.357 101.684C781.337 101.024 780.838 98.3645 780.838 98.3645C780.838 98.3645 785.378 96.8145 782.898 94.7845C780.448 92.7945 775.578 92.3845 775.088 90.1445C774.658 87.9045 774.427 87.9045 772.667 87.4545C770.907 86.9945 770.677 87.2945 769.797 86.3645C768.917 85.4845 768.917 86.3645 768.227 84.1745C767.577 82.0045 766.688 79.9445 766.688 79.9445C766.688 79.9445 766.457 78.6345 764.927 78.8645C763.357 79.0245 763.547 77.6545 761.367 78.8045C759.147 79.9445 756.727 80.8145 756.727 80.8145C756.727 80.8145 754.768 87.4645 751.828 83.0245C748.948 78.6445 748.948 77.5145 747.838 74.4245C746.698 71.2545 745.227 72.4345 745.227 68.2145C745.227 63.9445 745.387 62.0045 745.227 59.9845C744.967 57.9445 744.278 48.6745 744.278 48.6745C744.278 48.6745 739.867 48.8845 740.287 47.0745C740.777 45.3145 742.508 42.2445 741.398 41.3545C740.288 40.4745 738.528 40.2145 738.528 40.2145C738.528 40.2145 739.567 37.4045 737.417 36.4545C735.227 35.5745 734.088 36.0445 734.088 34.6545C734.088 33.3645 734.807 32.6845 735.227 31.8145C735.687 30.9445 736.528 29.3145 736.528 28.4445C736.528 27.5745 734.468 26.6845 734.078 26.4345C733.618 26.2245 729.638 25.5845 729.208 24.7045C728.788 23.8345 729.208 16.0445 729.208 16.0445C729.208 16.0445 729.267 13.5945 729.047 12.7145C728.787 11.8445 728.098 10.0145 728.098 10.0145C728.098 10.0145 727.898 6.03447 727.018 5.17447C726.108 4.25447 722.578 3.39447 722.578 3.39447C722.578 3.39447 726.528 -0.335522 724.088 0.0244779H719.247C719.247 -0.335522 719.408 3.39447 716.378 3.39447C713.238 3.39447 712.388 4.50449 712.318 6.28449V16.4445L709.318 23.1445V28.6445C709.318 28.6445 706.868 29.2845 705.338 31.4545C703.738 33.6645 702.468 37.8245 702.468 37.8245C702.468 37.8245 702.208 40.4245 702.468 40.4245C702.658 40.4245 705.108 40.4245 705.338 41.3245C705.568 42.1645 706.478 41.3245 705.758 43.7445C705.108 46.1345 703.997 47.1945 703.307 48.1345C702.657 48.9845 700.888 51.4445 700.888 52.0345C700.888 52.6845 703.988 57.5545 703.568 58.2145C703.148 58.7945 700.238 60.5545 699.818 61.4645C699.328 62.4045 698.448 71.3345 699.818 73.5345C701.118 75.7245 702.198 73.9745 701.578 77.9045C700.898 81.8745 696.618 84.6945 699.068 88.4445C701.578 92.1245 704.418 95.1945 701.578 99.3845C698.678 103.584 696.948 109.684 696.948 114.714C696.948 119.784 697.958 120.394 696.948 122.414C695.808 124.314 695.127 128.724 693.787 131.384C692.487 133.984 686.938 139.064 686.938 141.064C686.938 143.004 685.438 151.104 682.078 152.824C678.748 154.564 670.598 157.474 667.848 156.554C665.208 155.714 666.118 155.714 663.708 154.184C661.258 152.604 655.028 149.134 653.068 149.134C651.078 149.134 648.828 150.024 648.828 147.374C648.828 144.724 644.847 138.164 642.237 137.964C639.567 137.744 630.688 137.964 629.128 135.754C627.558 133.564 619.627 123.264 616.037 122.814C612.547 122.414 606.317 118.424 605.427 117.794C604.507 117.134 603.267 116.664 602.557 116.344C602.457 116.344 602.397 116.344 602.297 116.284C602.847 115.284 603.767 113.634 603.537 112.494C603.147 110.674 602.457 109.094 601.617 109.094C600.797 109.094 599.338 110.674 599.338 110.674V113.144C599.338 113.144 600.188 114.724 600.348 116.254C598.158 116.254 595.258 116.354 595.258 116.354L593.758 115.294C594.208 114.734 594.507 114.344 594.737 114.194C595.287 113.964 596.008 111.784 596.008 111.784C596.008 111.784 599.497 107.044 597.438 108.144C595.518 109.244 594.078 110.854 593.198 110.854C592.318 110.854 592.518 110.854 592.318 110.114C592.158 109.434 592.158 107.614 591.468 107.964C590.688 108.324 592.317 107.614 590.688 108.324C589.058 109.094 589.807 108.324 589.057 109.094C588.727 109.334 587.788 109.694 586.708 110.034L585.047 108.794C585.047 108.794 587.337 105.794 585.047 105.104C582.857 104.414 570.887 96.3645 570.037 96.1345C569.127 95.9245 564.917 92.3945 565.987 91.1445C567.067 89.7745 569.348 88.4645 569.348 88.4645C569.348 88.4645 572.878 80.9745 573.528 80.5445C574.178 80.1445 575.357 78.5645 575.357 78.5645L577.737 75.9645L579.268 70.0245L579.557 67.3945C579.557 67.3945 575.938 67.1845 575.708 66.2945C575.518 65.4245 575.057 64.3245 575.057 63.0845C575.057 61.7445 575.348 60.4045 575.938 60.1645C576.587 59.9745 576.427 57.1345 577.537 57.1345C578.617 57.1345 579.067 57.2945 579.917 57.1345C580.897 56.9145 583.737 56.0545 583.737 56.0545H585.497L587.948 57.7845L592.158 52.5445C592.158 52.5445 592.808 49.8945 592.318 49.0245C591.898 48.1745 591.898 47.0845 591.898 47.0845L597.677 40.7145C597.677 40.7145 600.088 39.8745 600.088 37.6845C600.088 35.4245 597.248 31.0145 595.908 31.4845C594.568 31.9245 592.158 32.3445 592.158 32.3445C592.158 32.3445 592.808 26.6445 590.818 26.8545C588.798 27.0945 583.278 26.6445 583.278 28.8445C583.278 31.0245 583.537 32.6045 584.617 33.2545C585.697 33.8945 586.378 35.8845 586.378 35.8845C586.378 35.8845 582.368 39.1545 580.898 37.8845C579.268 36.5645 579.758 34.8045 579.758 34.8045C579.758 34.8045 577.737 31.9345 575.938 32.6145C574.178 33.2545 572.867 34.3745 572.867 34.3745C572.867 34.3745 571.107 33.4845 572.247 32.1845C573.327 30.8345 574.437 29.3445 574.667 28.6945C574.857 28.0045 575.937 27.1145 574.857 26.8745C573.747 26.6645 573.747 26.4445 572.247 26.6645C570.617 26.8745 569.698 27.3045 568.658 28.0045C567.548 28.6945 567.808 30.2145 565.848 30.4545C563.798 30.6145 560.857 32.3645 560.857 32.3645L559.458 34.6745C557.758 33.9445 555.247 32.6245 554.367 31.1245C553.097 28.7845 551.818 26.9645 549.828 27.7145C547.778 28.4445 546.497 29.8245 544.117 29.6645C541.737 29.4745 538.997 29.6645 538.997 29.6645C538.997 29.6645 538.448 26.9545 536.948 26.7945C535.508 26.6045 533.128 27.5045 532.218 26.7945C531.298 26.0345 531.298 23.4545 529.218 24.0345C527.258 24.6045 526.548 24.7645 525.208 24.7645C523.998 24.7645 522.107 23.9845 522.107 23.9845C522.107 23.9845 520.837 21.5145 522.107 21.1445C523.417 20.7545 523.287 18.0745 523.287 18.0745H522.218C522.218 18.0745 521.188 24.7445 518.268 23.2345C515.208 21.6545 515.207 19.0945 514.177 17.0645C513.217 15.0545 512.437 13.8645 510.227 14.3445C508.057 14.8745 505.068 17.2845 505.068 17.2845L503.468 14.2545C503.468 14.2545 504.857 10.0545 504.427 7.88449C504.037 5.66449 505.428 5.78448 503.468 5.52448C501.478 5.29448 500.837 4.38448 500.227 5.52448C499.587 6.69448 499.237 9.90448 499.237 9.90448C499.237 9.90448 496.638 9.08448 495.218 9.08448C493.828 9.08448 495.088 9.08448 493.778 9.08448C492.498 9.08448 490.278 8.93448 488.968 9.08448C487.728 9.29448 484.187 12.3845 486.807 13.0545C489.327 13.8345 490.827 14.2145 491.188 15.1445C491.548 16.0745 491.548 16.4245 491.938 17.1745C492.298 17.9245 492.818 19.9045 493.768 19.5245C494.718 19.1645 496.677 15.8645 496.677 15.8645C496.677 15.8645 499.688 15.5045 500.018 16.0745C500.378 16.6145 502.828 18.8245 502.828 18.8245C502.828 18.8245 502.237 18.5145 502.047 20.3645C501.847 22.3145 503.718 25.4145 503.718 26.7045C503.718 28.0345 503.328 30.0145 503.328 30.0145C503.328 30.0145 500.907 29.8545 499.177 30.2245C497.277 30.5645 494.497 32.4145 492.307 33.5145C490.117 34.6145 489.687 32.2245 487.927 32.9745C486.067 33.6645 482.797 34.2145 481.287 34.0545C479.787 33.8745 479.227 34.6145 478.177 33.3545C477.027 32.0745 476.677 28.9045 476.117 28.9045C475.597 28.9045 475.167 27.8545 474.617 29.0945C474.127 30.3845 474.547 30.9245 473.737 31.3145C473.017 31.6945 473.247 32.2145 472.107 31.6945C470.957 31.1345 470.958 30.5645 470.208 30.5645C469.518 30.5645 468.437 29.4645 468.247 30.9245C468.087 32.4145 468.247 35.5345 468.247 35.5345C468.247 35.5345 465.467 33.8645 465.107 35.5345C464.717 37.2345 465.107 38.8045 465.107 38.8045C465.107 38.8045 462.948 37.0245 461.638 37.4145C460.328 37.7645 459.218 38.6645 458.888 38.8045C458.568 39.0145 458.008 41.4045 458.008 41.4045C458.008 41.4045 455.387 43.6145 454.997 46.1645C454.637 48.7845 450.587 47.8645 449.667 49.3345C448.787 50.7745 447.867 53.7445 449.667 55.7145C451.497 57.7645 451.497 58.5245 450.188 59.8345C448.977 61.0445 448.357 64.3645 445.807 63.2845C443.227 62.1845 441.787 64.4145 441.617 65.0845C441.387 65.8745 440.117 70.2545 440.117 71.7245C440.117 73.1645 437.048 73.9345 435.898 74.6545C434.788 75.4045 434.427 76.3345 433.867 77.6245C433.337 78.9045 432.427 80.3545 432.987 82.0245C433.607 83.6945 434.428 83.5145 435.338 84.9145C436.288 86.4545 437.688 87.3345 437.688 88.2645C437.688 89.1945 438.638 92.4345 438.638 92.4345C438.638 92.4345 436.448 90.6545 436.278 92.4345C436.088 94.1645 435.888 94.8945 435.888 94.8945C435.888 94.8945 433.598 92.1745 431.828 92.4345C430.198 92.6745 429.078 95.9845 429.078 95.9845C429.078 95.9845 427.638 92.7145 423.578 92.4345C419.518 92.1045 416.607 90.6545 414.747 90.6545C412.947 90.6545 413.108 89.5545 412.028 90.8645C410.878 92.1045 410.328 92.0745 409.768 93.7245C409.248 95.2145 406.138 97.4545 406.268 95.9845C406.498 94.5645 408.657 93.7745 408.297 90.9945C407.967 88.2645 402.208 86.5945 402.208 86.5945C402.208 86.5945 398.547 79.8045 396.677 78.1745C394.877 76.4945 391.968 74.2845 391.968 74.2845C391.968 74.2845 393.207 70.6045 390.297 70.7645C387.317 70.9445 383.427 71.5545 383.427 71.5545L383.167 72.1445C381.827 70.2445 379.998 67.7945 379.468 67.7945C378.778 67.7945 377.048 66.4245 376.098 67.7945C375.148 69.0845 375.378 67.6145 375.148 69.0845C374.988 70.5445 375.148 71.9345 375.148 71.9345C375.148 71.9345 374.987 73.0145 374.237 74.7445C373.517 76.4345 370.707 78.8545 370.047 77.7045C369.527 76.5745 370.697 76.9345 370.047 75.9545C369.527 74.9545 371.388 75.4945 369.528 74.9545C367.598 74.3645 367.438 73.0045 366.318 74.3645C365.178 75.6745 364.818 77.3245 364.818 77.3245C364.818 77.3245 362.397 71.1145 360.537 71.3745C358.637 71.5545 356.977 72.4545 357.297 73.7645C357.687 75.0845 360.927 76.9345 360.927 76.9345C360.927 76.9345 359.978 79.4345 359.388 79.8145C358.798 80.1345 356.638 79.8145 357.258 82.0545C357.848 84.3045 358.468 84.7145 358.468 84.7145L355.787 85.6345C355.787 85.6345 353.527 84.5545 353.167 82.6245C352.777 80.7745 351.268 78.2945 350.188 78.6645C349.038 79.0445 348.458 82.7645 348.458 82.7645L346.917 85.6245C346.917 85.6245 345.648 85.2445 344.268 85.6245C342.998 85.9645 341.357 85.6245 341.357 85.6245C341.357 85.6245 339.198 82.9745 338.518 84.1245C337.728 85.2545 338.678 87.1645 338.518 87.8845C338.318 88.6545 338.678 89.5545 339.078 90.1045C339.398 90.6445 339.987 91.0845 339.987 91.8345C339.987 92.5845 339.078 93.5645 340.148 94.1045C341.358 94.6645 347.338 95.7845 345.278 96.8645C343.188 98.0145 341.348 97.6645 340.568 96.8645C339.788 96.1345 336.767 95.5745 335.857 95.5745C334.907 95.5745 334.158 95.9645 333.958 96.4845C333.768 97.0945 331.738 99.5245 330.718 100.504C329.808 101.404 328.008 102.324 328.008 102.324C328.008 102.324 320.977 101.034 321.757 102.324C322.507 103.684 326.437 104.094 325.287 105.724C324.177 107.394 320.678 109.284 321.658 112.324C322.708 115.304 324.178 117.784 325.718 119.224C327.158 120.794 326.997 122.644 326.997 122.644C326.997 122.644 325.137 121.914 324.187 122.644C323.277 123.344 324.617 128.484 321.477 128.124C318.307 127.744 318.567 124.724 316.107 124.114C313.657 123.554 311.557 123.554 311.557 123.554C311.557 123.554 309.557 120.004 308.187 120.164C306.847 120.344 302.197 121.684 303.677 123.554C305.147 125.484 306.687 127.374 305.377 127.374C304.067 127.374 298.247 129.584 300.667 131.694C303.117 133.784 305.508 133.574 306.488 136.514C307.438 139.554 310.677 142.204 309.887 142.554C309.167 142.944 307.428 139.564 306.488 141.814C305.508 144.074 305.927 152.774 304.687 151.574C303.317 150.474 300.997 143.544 300.037 142.364C299.157 141.254 294.637 134.714 294.637 134.714L293.137 131.694C293.137 131.694 295.617 126.374 293.137 126.554C290.677 126.754 289.768 130.334 289.018 130.934C288.268 131.474 285.647 136.924 285.647 136.924C285.647 136.924 282.607 137.334 278.847 140.904C275.117 144.504 273.257 146.934 273.257 151.714C273.257 156.474 275.348 161.574 274.958 162.504C274.498 163.464 277.547 163.464 277.897 164.614C278.257 165.694 279.237 168.344 277.377 168.914C275.477 169.484 266.287 173.284 265.247 175.474C264.427 177.744 262.308 181.164 261.548 183.374C260.768 185.684 254.778 200.354 244.048 203.524C233.348 206.714 221.117 209.364 220.367 210.114C219.647 210.844 218.278 212.784 215.988 211.784C213.798 210.854 206.827 207.874 204.927 210.324C203.057 212.784 201.687 217.635 199.107 217.805C196.487 217.985 189.558 217.274 185.888 218.734C182.358 220.274 180.327 225.755 175.587 226.115C170.877 226.495 168.618 229.664 166.918 228.334C165.248 227.024 164.697 226.305 163.157 226.305C161.687 226.305 160.737 227.024 159.817 227.024C158.837 227.024 156.967 227.024 156.967 227.024C156.967 227.024 158.478 223.115 158.668 222.125C158.828 221.205 159.818 219.934 158.828 219.524C157.918 219.164 157.718 218.394 156.958 219.164C156.208 219.934 156.538 221.015 156.048 221.745C155.428 222.495 154.478 224.064 153.958 224.064C153.398 224.064 148.298 224.574 149.048 225.404C149.798 226.104 153.597 226.484 153.597 226.484C153.597 226.484 150.788 228.234 148.988 228.644C147.218 229.074 142.708 231.355 140.978 232.875C139.278 234.365 139.278 233.434 134.958 237.714C130.678 242.124 130.447 246.965 125.537 247.685C120.697 248.435 115.787 248.254 111.307 252.064C106.757 255.754 106.757 257.474 105.617 261.664C104.507 265.774 103.527 267.815 102.447 268.375C101.297 268.935 98.4875 269.154 98.4875 269.154C98.4875 269.154 99.2075 267.074 98.4875 265.604C97.7675 264.104 97.3375 263.525 97.3375 261.995C97.3375 260.495 96.5875 257.284 97.3375 256.564C98.0875 255.764 98.0875 254.644 98.0875 254.644C98.0875 254.644 94.1275 253.335 92.8175 255.935C91.5075 258.655 92.0675 263.684 89.2575 267.644C86.4075 271.554 85.2975 274.745 86.9975 276.865C88.6975 278.945 91.5075 279.884 90.1375 282.524C88.8975 285.144 88.5075 282.684 88.3375 287.574C88.0775 292.484 88.2375 294.334 86.2075 296.794C84.1475 299.254 78.5275 315.784 80.5875 319.544C82.6475 323.294 85.8875 325.184 85.8875 328.784C85.8875 332.364 86.7975 332.514 88.6975 335.524C90.5575 338.544 92.5875 343.655 94.9075 346.435C95.0075 346.625 95.1375 346.774 95.2975 346.894V346.754V346.834V346.894C95.6375 347.354 98.3475 350.554 98.3475 352.944C98.3475 355.474 98.0575 358.674 98.3475 360.944C98.5075 362.464 98.3475 364.064 98.3475 365.274C98.1175 365.394 97.8875 365.474 97.7275 365.474C95.6375 365.634 94.7175 366.404 94.2975 364.344C93.9375 362.284 93.7375 363.024 93.7375 361.514C93.7375 359.974 93.1475 357.204 93.1475 356.274C93.1475 355.324 93.1475 353.805 92.2675 354.185C91.3175 354.595 91.5175 353.615 90.9575 355.685C90.3675 357.795 90.5375 359.274 89.4175 359.274C88.3075 359.274 87.6875 358.884 87.6875 358.134C87.6875 357.414 89.7475 351.024 87.3275 348.774C84.9075 346.484 84.5475 345.555 84.5475 344.245C84.5475 342.885 82.0975 341.195 81.3075 343.805C80.5575 346.485 80.3975 348.774 82.8075 352.854C85.2575 357.004 84.3175 358.684 88.1375 361.514C91.8575 364.344 93.0075 369.584 89.4075 370.154C85.8775 370.744 87.0175 368.814 84.7075 364.914C82.4475 360.994 81.7675 356.064 80.0075 356.064C78.1775 356.064 76.2775 354.594 75.3375 351.574C74.4275 348.564 73.2475 342.185 71.4175 342.365C69.5275 342.575 69.5275 343.325 71.4175 349.125C73.2475 354.955 75.6675 359.815 80.5675 366.245C85.5275 372.595 90.9575 379.544 93.0175 385.714C95.1075 391.984 98.9975 392.704 96.9375 399.284C94.8775 405.834 94.8775 404.934 99.9475 409.844C105.047 414.694 108.408 419.414 108.018 423.174C107.658 426.864 108.407 428.615 110.307 430.115C112.167 431.625 115.568 441.554 115.108 445.504C114.618 449.454 115.928 468.814 120.828 476.524C125.698 484.184 132.458 495.494 132.458 506.344C132.458 517.254 130.438 509.424 130.208 510.144C130.048 510.884 130.208 513.154 130.958 515.024C131.678 516.904 132.457 520.664 131.907 521.004C131.347 521.414 127.788 521.414 128.738 524.204C129.618 527.034 133.637 534.984 131.907 538.094C130.207 541.344 127.207 547.554 125.147 547.734C123.087 547.914 120.247 548.684 119.497 547.734C118.777 546.764 114.987 543.535 115.117 545.805L115.217 550.674C115.217 550.674 114.887 561.294 115.217 561.984C115.447 562.754 118.027 569.234 118.807 568.764C119.527 568.284 125.538 565.934 127.268 568.824C128.938 571.704 135.698 575.314 135.958 577.484C136.188 579.604 136.967 582.044 139.127 582.044C141.217 582.044 144.387 583.054 146.117 584.704C147.847 586.424 152.877 587.615 152.877 587.995H157.228C157.228 587.615 162.057 587.365 163.307 587.615C164.517 587.825 167.158 586.195 168.138 587.615C169.088 589.135 172.488 589.134 173.918 588.884C175.358 588.604 175.847 589.134 177.807 588.954C179.737 588.884 182.157 588.954 182.157 588.954C182.157 588.954 181.667 587.154 182.157 586.914C182.617 586.664 185.027 586.194 185.027 586.194C185.027 586.194 185.518 584.234 187.448 584.234C189.338 584.234 191.337 584.004 191.537 582.044C191.827 580.104 193.497 578.964 196.177 578.224C198.857 577.484 199.997 576.285 200.227 575.055C200.457 573.865 201.697 570.954 203.657 571.454C205.547 571.894 209.207 574.104 210.387 572.894C211.657 571.704 211.657 571.704 211.657 571.704L213.747 569.995H216.687C216.687 569.995 214.927 567.114 216.687 565.134C218.417 563.224 225.377 557.214 230.247 557.664C235.077 558.104 235.348 558.844 237.208 558.104C239.138 557.404 242.567 556.214 246.647 555.964C250.797 555.704 255.857 555.245 257.097 555.245C258.237 555.245 260.197 554.984 261.867 555.694C263.627 556.434 267.197 555.954 267.197 555.954C267.197 555.954 270.367 554.974 270.567 556.424C270.857 557.894 271.807 558.354 273.217 558.354C274.717 558.354 276.677 557.894 276.677 557.894C276.677 557.894 278.087 557.384 278.827 557.974H281.997L285.817 557.194C285.817 557.194 293.327 555.234 293.727 556.674C294.287 558.094 293.037 560.044 295.747 559.584C298.357 559.114 298.137 557.205 300.097 556.875C301.987 556.675 307.577 555.464 308.067 553.284C308.517 551.114 310.647 548.484 312.407 548.024C314.107 547.504 312.827 545.554 314.827 541.224C316.757 536.864 319.137 531.295 325.477 530.875C331.747 530.335 331.517 528.664 337.047 525.724C342.597 522.834 345.767 524.054 349.857 520.204C354.007 516.314 360.277 511.724 367.987 513.654C375.727 515.564 382.718 516.854 390.268 513.164C397.778 509.524 400.918 510.064 404.708 508.574C408.568 507.124 420.428 498.964 431.078 497.724C441.668 496.514 453.098 495.484 457.638 495.484C462.278 495.484 466.917 496.744 468.547 495.484C470.247 494.344 473.128 493.604 473.128 493.604C473.128 493.604 477.507 495.484 482.107 498.164C486.647 500.844 492.498 505.714 495.338 506.154C498.278 506.674 501.448 505.714 501.448 505.714C501.448 505.714 508.177 503.755 510.787 507.125C513.497 510.505 515.227 510.964 518.107 510.964C519.867 510.964 522.388 510.404 524.018 509.884C524.018 509.884 526.268 510.144 525.848 510.964C525.428 511.784 522.908 512.844 524.018 513.754C525.098 514.624 525.878 513.754 525.878 513.754L527.578 513.284C527.578 513.284 527.838 514.084 528.528 514.104C529.378 514.154 528.528 513.434 529.378 514.154C530.098 514.904 528.888 516.164 529.378 517.774C529.798 519.454 532.188 520.664 533.068 520.024C534.018 519.454 535.517 518.854 536.307 519.014C537.057 519.174 537.058 519.614 537.778 520.224C538.558 520.794 541.237 524.114 539.477 524.454C537.677 524.734 535.948 523.094 535.718 524.454C535.358 525.814 534.348 528.994 535.268 530.004C536.148 531.084 536.737 531.085 536.737 531.805C536.737 532.635 535.827 534.404 537.688 535.024C539.487 535.614 540.077 538.194 541.867 538.024C543.697 537.844 545.817 537.014 546.537 538.024C547.257 539.084 551.537 540.144 551.537 543.274C551.537 546.494 550.628 548.184 553.338 549.984C556.048 551.784 559.967 555.844 560.297 558.234C560.557 560.654 560.887 563.564 561.997 564.734C563.007 565.924 563.757 570.334 563.287 570.334V572.274C563.757 572.274 562.258 571.804 562.128 571.214C561.998 570.574 559.708 569.864 559.088 571.084C558.498 572.274 558.628 573.814 561.508 574.694C564.378 575.594 564.378 577.554 564.838 578.504C565.228 579.384 568.008 581.935 568.008 581.935C568.008 581.935 570.877 586.024 571.438 584.484C572.058 583.044 572.227 581.835 573.107 582.375C574.057 583.045 576.307 584.594 577.227 584.824C578.107 585.074 578.398 582.375 578.398 582.375C578.398 582.375 578.558 580.444 578.398 579.954C578.238 579.494 576.857 576.954 576.857 576.954C576.857 576.954 576.437 573.495 577.677 573.365C578.887 573.235 580.057 574.854 580.227 572.284C580.387 569.754 580.067 569.754 581.307 569.284C582.477 568.824 585.848 564.024 586.568 562.484C587.288 560.964 589.438 557.664 593.758 555.504C598.198 553.444 601.498 551.785 603.948 550.555C606.338 549.295 608.328 546.764 608.458 543.024C608.588 539.204 609.468 537.555 611.008 535.615C612.548 533.655 614.018 532.734 614.018 532.734C614.018 532.734 616.597 531.804 616.727 531.084C616.887 530.334 617.677 526.424 618.107 526.824C618.597 527.314 619.908 531.524 621.408 532.634C622.978 533.644 622.158 535.604 620.528 535.904C618.898 536.194 617.487 536.694 618.107 539.384C618.727 542.084 621.568 546.204 620.528 547.354C619.518 548.564 614.808 550.554 614.158 553.254C613.568 555.964 611.938 560.244 611.158 561.534C610.468 562.924 610.698 567.924 610.568 568.944C610.468 570.004 610.568 579.224 610.568 579.224C610.568 579.224 609.288 584.224 607.268 582.724C605.118 581.174 600.017 581.024 599.557 583.044C599.137 584.974 599.228 588.274 597.598 588.944C595.968 589.614 593.777 596.114 599.557 593.604C605.277 590.984 608.048 589.964 608.768 589.964C609.488 589.964 609.358 589.174 611.018 589.784C612.688 590.404 611.347 589.624 612.688 590.404C614.028 591.174 614.807 592.204 615.857 591.324C616.897 590.404 617.227 591.324 617.688 588.954C618.107 586.664 619.027 577.564 619.357 576.084C619.647 574.594 621.747 570.185 622.297 568.685C622.787 567.185 622.488 561.834 625.268 565.824C628.078 569.764 633.047 579.674 633.047 584.984C633.047 590.264 632.757 591.174 631.997 592.694C631.277 594.184 629.938 597.494 628.078 598.264C626.248 599.004 622.167 603.544 627.357 602.954C632.457 602.314 635.038 601.584 635.758 601.284C636.538 601.004 640.787 599.684 645.167 602.984C649.507 606.284 658.107 615.925 659.938 621.805C661.737 627.685 663.758 634.464 661.148 636.294C658.598 638.104 659.938 640.624 660.068 641.764C660.258 642.774 660.298 644.414 662.388 647.794C664.478 651.094 663.298 650.184 667.028 653.654C670.818 657.084 671.407 661.164 675.787 665.004C680.167 668.774 679.448 669.314 683.828 669.464C688.208 669.664 690.138 669.174 692.878 672.354C695.558 675.544 695.558 677.774 697.878 678.104C700.098 678.434 701.177 678.104 701.177 678.104C701.177 678.104 703.297 673.404 706.307 675.194C709.307 677.024 709.868 677.925 713.068 678.245C716.268 678.505 718.488 677.774 721.068 679.424C723.648 681.094 729.238 683.344 729.828 683.854C730.448 684.264 731.987 685.294 732.867 685.784C733.717 686.224 733.558 686.574 734.698 687.464C735.708 688.334 736.758 688.804 737.708 688.984C738.558 689.134 741.597 691.385 744.047 691.055C746.467 690.735 750.357 687.034 751.727 685.924C753.137 684.894 760.357 678.094 760.357 678.094C760.357 678.094 765.458 675.074 765.458 672.814C765.458 670.534 767.448 668.584 768.628 667.394C769.868 666.174 771.927 664.224 773.297 664.794C774.667 665.384 777.247 667.215 777.247 667.865C777.247 668.405 777.667 668.404 777.247 669.444C776.797 670.524 776.338 672.194 775.708 672.454C775.088 672.814 770.417 677.765 771.787 678.935C773.167 680.225 776.037 680.224 776.037 680.224L779.797 679.264C779.797 679.264 784.927 680.504 786.167 682.894C787.307 685.284 787.477 685.914 789.497 685.914C791.397 685.914 793.848 686.554 793.848 687.134C793.848 687.754 794.768 691.364 795.838 691.844C796.848 692.304 798.517 690.914 799.107 690.714C799.697 690.584 801.557 690.714 801.557 690.714L803.318 690.584V687.984C803.318 687.984 807.848 686.274 807.588 687.354C807.258 688.394 806.468 690.245 806.468 690.245C806.468 690.245 804.988 690.995 804.568 691.245C804.078 691.605 802.367 691.934 802.727 693.544C802.987 695.254 806.708 701.345 807.588 699.935C808.438 698.585 808.438 695.405 808.638 694.625C808.768 693.905 809.067 691.125 809.487 690.805C809.977 690.545 816.387 685.825 819.247 682.935C821.717 680.535 829.367 672.584 833.307 669.714C833.307 669.714 833.898 669.334 834.818 668.764C834.918 668.764 834.917 668.734 835.047 668.734C835.077 668.654 835.147 668.655 835.147 668.555C838.497 666.535 845.398 662.544 848.358 662.424C852.328 662.224 869.968 661.685 869.968 661.685C869.968 661.685 878.677 660.995 879.527 658.615C880.417 656.305 880.807 654.674 880.807 654.674C880.807 654.674 885.638 656.654 886.228 653.754C886.718 650.894 884.978 647.814 886.228 647.484C887.478 647.094 887.318 646.004 887.318 646.004V643.424L884.807 641.625C884.807 641.625 888.728 624.654 889.218 621.944C889.778 619.264 890.528 608.835 892.488 605.115C894.478 601.325 899.147 590.764 899.147 590.764C899.147 590.764 902.908 590.584 903.588 589.344C904.338 588.074 905.578 587.315 905.578 586.435C905.578 585.535 901.948 582.335 903.748 581.245C905.578 580.195 906.848 573.604 906.978 570.354C907.168 567.124 907.168 566.224 908.448 565.524C909.718 564.804 914.488 559.724 915.568 553.504C916.678 547.214 922.917 532.714 926.767 530.234C930.487 527.684 933.328 526.624 933.858 525.704C934.418 524.844 934.608 523.384 935.488 522.884C936.398 522.274 942.998 520.355 942.998 517.305C942.998 514.255 939.208 509.594 942.998 506.334C946.758 503.104 946.268 501.014 949.828 494.574C953.388 488.104 953.587 482.915 953.777 482.185C953.937 481.465 953.777 478.064 953.777 478.064C953.777 478.064 952.177 478.064 952.507 475.024C952.867 472.004 949.798 474.284 953.848 466.424C957.868 458.524 958.028 453.014 959.498 446.534C960.928 440.104 961.428 436.274 961.818 434.544C962.208 432.714 963.087 430.595 963.257 430.055C963.447 429.495 964.688 427.724 964.688 427.724C964.688 427.724 966.328 424.834 966.328 424.314C966.328 423.754 966.328 416.074 966.328 413.214C966.318 410.484 962.207 405.285 962.887 400.805Z" fill="black"/>
</svg>
